<?xml version="1.0" encoding="utf-8"?>
<!-- Generator: Adobe Illustrator 21.1.0, SVG Export Plug-In . SVG Version: 6.00 Build 0)  -->
<svg version="1.1" id="Layer_1" xmlns="http://www.w3.org/2000/svg" xmlns:xlink="http://www.w3.org/1999/xlink" x="0px" y="0px"
	 viewBox="0 0 31.7 31.7" style="enable-background:new 0 0 31.7 31.7;" xml:space="preserve">
<title>information</title>
<g>
	<path d="M15.9,1.9c7.7,0,14,6.3,14,14s-6.3,14-14,14s-14-6.3-14-14S8.1,1.9,15.9,1.9 M15.9,0C7.1,0,0,7.1,0,15.8
		s7.1,15.9,15.8,15.9s15.9-7.1,15.9-15.8c0,0,0,0,0,0C31.7,7.1,24.6,0,15.9,0L15.9,0z"/>
	<path d="M15.9,25c-0.5,0-0.9-0.4-0.9-0.9V13.9c0-0.5,0.4-0.9,0.9-0.9c0.5,0,0.9,0.4,0.9,0.9v10.2C16.8,24.6,16.4,25,15.9,25
		C15.9,25,15.9,25,15.9,25z"/>
	<circle cx="15.8" cy="9.3" r="1.5"/>
</g>
</svg>
